<?xml version="1.0" encoding="UTF-8" standalone="no"?>
<!DOCTYPE svg PUBLIC "-//W3C//DTD SVG 1.1//EN" "http://www.w3.org/Graphics/SVG/1.1/DTD/svg11.dtd">
<svg version="1.1" xmlns="http://www.w3.org/2000/svg" xmlns:xlink="http://www.w3.org/1999/xlink" preserveAspectRatio="xMidYMid meet" viewBox="0 0 640 640" width="640" height="640"><defs><path d="M0 576L0 64C0 64 0 64 0 64C0 28.65 28.65 0 64 0C64 0 64 0 64 0L576 0C576 0 576 0 576 0C611.35 0 640 28.65 640 64C640 64 640 64 640 64L640 576C640 576 640 576 640 576C640 611.35 611.35 640 576 640C576 640 576 640 576 640L64 640C64 640 64 640 64 640C28.65 640 0 611.35 0 576C0 576 0 576 0 576Z" id="av5deEWVc"></path><clipPath id="clipbcfsxLdoB"><use xlink:href="#av5deEWVc" opacity="1"></use></clipPath><path d="M264 464L264 384L312 384L312 464L264 464ZM152 464L152 384L200 384L200 464L152 464ZM40 464L40 384L88 384L88 464L40 464ZM238.56 304.27L241.78 304.6L244.97 305.05L248.12 305.63L251.22 306.33L254.27 307.15L257.28 308.08L260.23 309.13L263.13 310.29L265.97 311.56L268.75 312.94L271.47 314.42L274.13 316L276.72 317.67L279.24 319.45L281.68 321.31L284.05 323.27L286.35 325.32L288.56 327.45L290.69 329.66L292.73 331.95L294.69 334.32L296.56 336.77L298.33 339.29L300.01 341.88L301.59 344.53L303.07 347.25L304.44 350.03L305.71 352.88L306.87 355.78L307.92 358.73L308.86 361.73L309.67 364.79L310.37 367.89L310.95 371.03L311.41 374.22L311.74 377.45L311.93 380.71L312 384L264 384L263.98 382.68L263.9 381.37L263.77 380.08L263.59 378.81L263.35 377.55L263.07 376.31L262.75 375.09L262.37 373.89L261.95 372.71L261.49 371.55L260.98 370.41L260.43 369.3L259.84 368.21L259.21 367.15L258.54 366.11L257.83 365.1L257.08 364.12L256.3 363.18L255.48 362.26L254.63 361.37L253.74 360.52L252.83 359.7L251.88 358.92L250.9 358.17L249.89 357.46L248.86 356.79L247.79 356.16L246.71 355.57L245.59 355.02L244.46 354.51L243.3 354.05L242.11 353.63L240.91 353.25L239.69 352.93L238.45 352.65L237.19 352.42L235.92 352.23L234.63 352.1L233.32 352.02L232 352L230.69 352.02L229.38 352.1L228.09 352.23L226.82 352.42L225.56 352.65L224.32 352.93L223.1 353.25L221.9 353.63L220.71 354.05L219.55 354.51L218.42 355.02L217.3 355.57L216.22 356.16L215.15 356.79L214.12 357.46L213.11 358.17L212.13 358.92L211.18 359.7L210.27 360.52L209.38 361.37L208.53 362.26L207.71 363.18L206.93 364.12L206.18 365.1L205.47 366.11L204.8 367.15L204.17 368.21L203.58 369.3L203.03 370.41L202.52 371.55L202.06 372.71L201.64 373.89L201.26 375.09L200.94 376.31L200.66 377.55L200.42 378.81L200.24 380.08L200.11 381.37L200.03 382.68L200 384L152 384L152 383.91L151.98 382.68L151.9 381.37L151.77 380.08L151.59 378.81L151.35 377.55L151.07 376.31L150.75 375.09L150.37 373.89L149.95 372.71L149.49 371.55L148.98 370.41L148.43 369.3L147.84 368.21L147.21 367.15L146.54 366.11L145.83 365.1L145.08 364.12L144.3 363.18L143.48 362.26L142.63 361.37L141.74 360.52L140.82 359.7L139.88 358.92L138.9 358.17L137.89 357.46L136.86 356.79L135.79 356.16L134.71 355.57L133.59 355.02L132.46 354.51L131.3 354.05L130.11 353.63L128.91 353.25L127.69 352.93L126.45 352.65L125.19 352.42L123.92 352.23L122.63 352.1L121.32 352.02L120 352L118.69 352.02L117.38 352.1L116.09 352.23L114.82 352.42L113.56 352.65L112.32 352.93L111.1 353.25L109.89 353.63L108.71 354.05L107.55 354.51L106.42 355.02L105.3 355.57L104.22 356.16L103.15 356.79L102.12 357.46L101.11 358.17L100.13 358.92L99.18 359.7L98.27 360.52L97.38 361.37L96.53 362.26L95.71 363.18L94.93 364.12L94.18 365.1L93.47 366.11L92.8 367.15L92.17 368.21L91.58 369.3L91.03 370.41L90.52 371.55L90.06 372.71L89.64 373.89L89.26 375.09L88.94 376.31L88.66 377.55L88.42 378.81L88.24 380.08L88.11 381.37L88.03 382.68L88 384L40 384L40.07 380.71L40.27 377.45L40.59 374.22L41.05 371.03L41.63 367.89L42.33 364.79L43.15 361.73L44.08 358.73L45.13 355.78L46.29 352.88L47.56 350.03L48.94 347.25L50.41 344.53L51.99 341.88L53.67 339.29L55.44 336.77L57.31 334.32L59.27 331.95L61.31 329.66L63.44 327.45L65.66 325.32L67.95 323.27L70.32 321.31L72.77 319.45L75.28 317.67L77.87 316L80.53 314.42L83.25 312.94L86.03 311.56L88.87 310.29L91.77 309.13L94.73 308.08L97.73 307.15L100.79 306.33L103.89 305.63L107.03 305.05L110.22 304.6L113.44 304.27L116.71 304.07L120 304L123.3 304.07L126.56 304.27L129.78 304.6L132.97 305.05L136.11 305.63L139.22 306.33L142.27 307.15L145.28 308.08L148.23 309.13L151.13 310.29L153.97 311.56L156.75 312.94L159.47 314.42L162.13 316L164.72 317.67L167.23 319.45L169.68 321.31L172.05 323.27L174.34 325.32L176 326.91L177.66 325.32L179.95 323.27L182.32 321.31L184.77 319.45L187.29 317.67L189.87 316L192.53 314.42L195.25 312.94L198.03 311.56L200.87 310.29L203.77 309.13L206.73 308.08L209.73 307.15L212.79 306.33L215.89 305.63L219.03 305.05L222.22 304.6L225.44 304.27L228.71 304.07L232 304L235.3 304.07L238.56 304.27Z" id="g10KnNac5H"></path><path d="M552 464L552 384L600 384L600 464L552 464ZM440 464L440 384L488 384L488 464L440 464ZM328 464L328 384L376 384L376 464L328 464ZM526.56 304.27L529.78 304.6L532.97 305.05L536.12 305.63L539.22 306.33L542.27 307.15L545.28 308.08L548.23 309.13L551.13 310.29L553.97 311.56L556.75 312.94L559.47 314.42L562.13 316L564.72 317.67L567.24 319.45L569.68 321.31L572.05 323.27L574.35 325.32L576.56 327.45L578.69 329.66L580.73 331.95L582.69 334.32L584.56 336.77L586.33 339.29L588.01 341.88L589.59 344.53L591.07 347.25L592.44 350.03L593.71 352.88L594.87 355.78L595.92 358.73L596.86 361.73L597.67 364.79L598.38 367.89L598.95 371.03L599.41 374.22L599.74 377.45L599.93 380.71L600 384L600 384L552.01 384L551.98 382.68L551.9 381.37L551.77 380.08L551.59 378.81L551.35 377.55L551.07 376.31L550.75 375.09L550.37 373.89L549.95 372.71L549.49 371.55L548.98 370.41L548.43 369.3L547.84 368.21L547.21 367.15L546.54 366.11L545.83 365.1L545.08 364.12L544.3 363.18L543.48 362.26L542.63 361.37L541.74 360.52L540.83 359.7L539.88 358.92L538.9 358.17L537.89 357.46L536.86 356.79L535.79 356.16L534.71 355.57L533.59 355.02L532.46 354.51L531.3 354.05L530.12 353.63L528.91 353.25L527.69 352.93L526.45 352.65L525.19 352.42L523.92 352.23L522.63 352.1L521.32 352.02L520.01 352L518.69 352.02L517.38 352.1L516.09 352.23L514.82 352.42L513.56 352.65L512.32 352.93L511.1 353.25L509.9 353.63L508.71 354.05L507.55 354.51L506.42 355.02L505.3 355.57L504.22 356.16L503.15 356.79L502.12 357.46L501.11 358.17L500.13 358.92L499.19 359.7L498.27 360.52L497.38 361.37L496.53 362.26L495.71 363.18L494.93 364.12L494.18 365.1L493.47 366.11L492.8 367.15L492.17 368.21L491.58 369.3L491.03 370.41L490.52 371.55L490.06 372.71L489.64 373.89L489.26 375.09L488.94 376.31L488.66 377.55L488.42 378.81L488.24 380.08L488.11 381.37L488.03 382.68L488.01 384L440 384L440 383.91L439.98 382.68L439.9 381.37L439.77 380.08L439.59 378.81L439.35 377.55L439.07 376.31L438.75 375.09L438.37 373.89L437.95 372.71L437.49 371.55L436.98 370.41L436.43 369.3L435.84 368.21L435.21 367.15L434.54 366.11L433.83 365.1L433.08 364.12L432.3 363.18L431.48 362.26L430.63 361.37L429.74 360.52L428.83 359.7L427.88 358.92L426.9 358.17L425.89 357.46L424.86 356.79L423.79 356.16L422.71 355.57L421.59 355.02L420.46 354.51L419.3 354.05L418.11 353.63L416.91 353.25L415.69 352.93L414.45 352.65L413.19 352.42L411.92 352.23L410.63 352.1L409.32 352.02L408 352L406.69 352.02L405.38 352.1L404.09 352.23L402.82 352.42L401.56 352.65L400.32 352.93L399.1 353.25L397.9 353.63L396.71 354.05L395.55 354.51L394.42 355.02L393.3 355.57L392.22 356.16L391.15 356.79L390.12 357.46L389.11 358.17L388.13 358.92L387.18 359.7L386.27 360.52L385.38 361.37L384.53 362.26L383.71 363.18L382.93 364.12L382.18 365.1L381.47 366.11L380.8 367.15L380.17 368.21L379.58 369.3L379.03 370.41L378.52 371.55L378.06 372.71L377.64 373.89L377.26 375.09L376.94 376.31L376.66 377.55L376.42 378.81L376.24 380.08L376.11 381.37L376.03 382.68L376 384L328 384L328.07 380.71L328.27 377.45L328.59 374.22L329.05 371.03L329.63 367.89L330.33 364.79L331.15 361.73L332.08 358.73L333.13 355.78L334.29 352.88L335.56 350.03L336.94 347.25L338.41 344.53L339.99 341.88L341.67 339.29L343.44 336.77L345.31 334.32L347.27 331.95L349.31 329.66L351.44 327.45L353.66 325.32L355.95 323.27L358.32 321.31L360.77 319.45L363.29 317.67L365.87 316L368.53 314.42L371.25 312.94L374.03 311.56L376.87 310.29L379.77 309.13L382.73 308.08L385.73 307.15L388.79 306.33L391.89 305.63L395.03 305.05L398.22 304.6L401.44 304.27L404.71 304.07L408 304L411.3 304.07L414.56 304.27L417.78 304.6L420.97 305.05L424.12 305.63L427.22 306.33L430.27 307.15L433.28 308.08L436.23 309.13L439.13 310.29L441.97 311.56L444.75 312.94L447.47 314.42L450.13 316L452.72 317.67L455.24 319.45L457.68 321.31L460.05 323.27L462.35 325.32L464 326.91L465.66 325.32L467.95 323.27L470.32 321.31L472.77 319.45L475.29 317.67L477.87 316L480.53 314.42L483.25 312.94L486.03 311.56L488.87 310.29L491.77 309.13L494.73 308.08L497.73 307.15L500.79 306.33L503.89 305.63L507.03 305.05L510.22 304.6L513.44 304.27L516.71 304.07L520 304L523.3 304.07L526.56 304.27Z" id="gdLpsgfJI"></path><path d="M581.25 0.21L583.83 0.47L586.38 0.84L588.9 1.3L591.38 1.86L593.82 2.51L596.23 3.26L598.59 4.1L600.91 5.03L603.19 6.04L605.41 7.14L607.59 8.33L609.71 9.59L611.78 10.93L613.8 12.35L615.75 13.84L617.65 15.41L619.48 17.04L621.25 18.75L622.96 20.52L624.59 22.35L626.16 24.25L627.65 26.2L629.07 28.22L630.41 30.29L631.67 32.41L632.86 34.59L633.96 36.81L634.97 39.09L635.9 41.41L636.74 43.77L637.49 46.18L638.14 48.62L638.7 51.1L639.16 53.62L639.53 56.17L639.79 58.75L639.95 61.36L640 64L640 160L0 160L0 63.94L0.05 61.36L0.21 58.75L0.47 56.17L0.84 53.62L1.3 51.1L1.86 48.62L2.51 46.17L3.26 43.77L4.1 41.41L5.03 39.09L6.04 36.81L7.14 34.59L8.33 32.41L9.59 30.29L10.93 28.22L12.35 26.2L13.84 24.24L15.41 22.35L17.04 20.51L18.74 18.74L20.51 17.04L22.35 15.41L24.24 13.84L26.2 12.35L28.22 10.93L30.29 9.59L32.41 8.33L34.59 7.14L36.81 6.04L39.09 5.03L41.41 4.1L43.77 3.26L46.17 2.51L48.62 1.86L51.1 1.3L53.62 0.84L56.17 0.47L58.75 0.21L61.36 0.05L64 0L576 0L578.64 0.05L581.25 0.21Z" id="c4HNebmC4Q"></path></defs><g><g><g><g clip-path="url(#clipbcfsxLdoB)"><use xlink:href="#av5deEWVc" opacity="1" fill-opacity="0" stroke="#ffffff" stroke-width="32" stroke-opacity="1"></use></g></g><g><use xlink:href="#g10KnNac5H" opacity="1" fill="#ffffff" fill-opacity="1"></use></g><g><use xlink:href="#gdLpsgfJI" opacity="1" fill="#ffffff" fill-opacity="1"></use></g><g><use xlink:href="#c4HNebmC4Q" opacity="1" fill="#ffffff" fill-opacity="1"></use></g></g></g></svg>